<?xml version="1.0" encoding="UTF-8"?>
<svg id="Ebene_1" xmlns="http://www.w3.org/2000/svg" viewBox="0 0 458.55 458.55">
  <defs>
    <style>
      .cls-1 {
        fill: #1d1d1b;
      }

      .cls-1, .cls-2, .cls-3 {
        stroke-miterlimit: 10;
      }

      .cls-1, .cls-3 {
        stroke: #1d1d1b;
        stroke-width: 10px;
      }

      .cls-2 {
        fill: none;
        stroke: #fff;
        stroke-width: 6px;
      }

      .cls-3 {
        fill: #fff;
      }
    </style>
  </defs>
  <rect class="cls-3" x="5" y="5" width="448.55" height="448.55"/>
  <rect class="cls-1" x="42.77" y="188.54" width="373" height="90"/>
  <line class="cls-2" x1="64.32" y1="183.36" x2="64.32" y2="228.36"/>
  <line class="cls-2" x1="347.78" y1="181.98" x2="347.78" y2="226.98"/>
  <line class="cls-2" x1="206.05" y1="183.36" x2="206.05" y2="228.36"/>
  <line class="cls-2" x1="92.66" y1="181.04" x2="92.66" y2="214.78"/>
  <line class="cls-2" x1="376.13" y1="180.01" x2="376.13" y2="213.75"/>
  <line class="cls-2" x1="234.4" y1="181.04" x2="234.4" y2="214.78"/>
  <line class="cls-2" x1="121.01" y1="181.04" x2="121.01" y2="214.78"/>
  <line class="cls-2" x1="404.47" y1="180.01" x2="404.47" y2="213.75"/>
  <line class="cls-2" x1="262.74" y1="181.04" x2="262.74" y2="214.78"/>
  <line class="cls-2" x1="149.36" y1="181.04" x2="149.36" y2="214.78"/>
  <line class="cls-2" x1="291.09" y1="181.04" x2="291.09" y2="214.78"/>
  <line class="cls-2" x1="177.7" y1="181.04" x2="177.7" y2="214.78"/>
  <line class="cls-2" x1="319.43" y1="181.04" x2="319.43" y2="214.78"/>
</svg>